<svg xmlns="http://www.w3.org/2000/svg" width="15.2" height="24" viewBox="0 0 15.2 24"><path d="M14.4,24a.8.8,0,0,0,.8-.8V.8a.8.8,0,0,0-.8-.8H.8A.8.8,0,0,0,0,.8V23.2a.8.8,0,0,0,.8.8ZM.8.8H14.4v6H.8Zm0,6.8H14.4V9.2H.8ZM.8,10H14.4V23.2H.8Zm0,0" transform="translate(0 0)" fill="#fff"/><path d="M91.332,34.133h-4.8a1.2,1.2,0,0,0-1.2,1.2v2a1.2,1.2,0,0,0,1.2,1.2h4.8a1.2,1.2,0,0,0,1.2-1.2v-2A1.2,1.2,0,0,0,91.332,34.133Zm.4,3.2a.4.4,0,0,1-.4.4h-4.8a.4.4,0,0,1-.4-.4v-2a.4.4,0,0,1,.4-.4h4.8a.4.4,0,0,1,.4.4Zm0,0" transform="translate(-81.332 -32.533)" fill="#fff"/></svg>