<svg xmlns="http://www.w3.org/2000/svg" width="24" height="24" viewBox="0 0 24 24"><path d="M277.4,132.242a4.747,4.747,0,0,0-.133-2.2l-.257-.845a1.836,1.836,0,0,0-3.477,0l-.257.845a4.748,4.748,0,0,0-.132,2.2,2.07,2.07,0,0,0,1.065,1.442l-.287,6.429a1.266,1.266,0,0,0,.32.985,1.4,1.4,0,0,0,1.974.088c.031-.028.06-.058.088-.088a1.249,1.249,0,0,0,.32-.958l-.289-6.457A2.069,2.069,0,0,0,277.4,132.242Zm-.788-.139a1.268,1.268,0,0,1-.83.956.4.4,0,0,0-.259.392l.3,6.752a.463.463,0,0,1-.12.363.618.618,0,0,1-.87,0,.48.48,0,0,1-.118-.389l.3-6.726a.4.4,0,0,0-.259-.392,1.268,1.268,0,0,1-.83-.955,3.944,3.944,0,0,1,.11-1.826l.257-.846a1.037,1.037,0,0,1,1.946,0l.257.846a3.95,3.95,0,0,1,.11,1.826Zm0,0" transform="translate(-260.277 -121.953)" fill="#fff"/><path d="M149.346,132.283a.4.4,0,0,0,.117-.283v-3.6a.4.4,0,0,0-.8,0v3.435l-1.083,1.083a.4.4,0,0,0-.117.3l.35,7a.544.544,0,0,1-.151.408.563.563,0,0,1-.8,0l0,0a.545.545,0,0,1-.151-.408l.352-7a.4.4,0,0,0-.117-.3l-1.083-1.083V128.4a.4.4,0,0,0-.8,0V132a.4.4,0,0,0,.117.283l1.074,1.075-.341,6.824a1.351,1.351,0,0,0,2.7.131c0-.044,0-.088,0-.131l-.341-6.824Zm0,0" transform="translate(-138.263 -122)" fill="#fff"/><path d="M171.064,132a.4.4,0,0,0,.4-.4v-3.2a.4.4,0,0,0-.8,0v3.2A.4.4,0,0,0,171.064,132Zm0,0" transform="translate(-162.664 -122)" fill="#fff"/><path d="M196.266,128.4v3.2a.4.4,0,0,0,.8,0v-3.2a.4.4,0,0,0-.8,0Zm0,0" transform="translate(-187.066 -122)" fill="#fff"/><path d="M12,0A12,12,0,1,0,24,12,12,12,0,0,0,12,0Zm0,23.2A11.2,11.2,0,1,1,23.2,12,11.2,11.2,0,0,1,12,23.2Zm0,0" fill="#fff"/><path d="M230.529,408.482a7.351,7.351,0,0,1-1.7,0,.4.4,0,1,0-.093.795,8.09,8.09,0,0,0,1.88,0,.4.4,0,1,0-.078-.8l-.015,0Zm0,0" transform="translate(-217.681 -389.331)" fill="#fff"/><path d="M362.505,143.084a.4.4,0,0,0-.048.564,7.2,7.2,0,0,1-.424,9.739.4.4,0,1,0,.565.567,8,8,0,0,0,.473-10.821.4.4,0,0,0-.563-.049h0Zm0,0" transform="translate(-344.95 -136.286)" fill="#fff"/><path d="M190.673,86.647a.4.4,0,0,0,.141-.026,7.267,7.267,0,0,1,4.24-.26.4.4,0,1,0,.188-.777,8.069,8.069,0,0,0-4.709.289.4.4,0,0,0,.141.774Zm0,0" transform="translate(-181.356 -81.36)" fill="#fff"/><path d="M86.122,156.865a7.148,7.148,0,0,1,1.376-4.235.4.4,0,1,0-.639-.481l-.007.01a8,8,0,0,0,.8,10.353.4.4,0,0,0,.567-.566,7.154,7.154,0,0,1-2.1-5.08Zm0,0" transform="translate(-81.322 -144.865)" fill="#fff"/></svg>
