<svg xmlns="http://www.w3.org/2000/svg" width="14.667" height="15.432" viewBox="0 0 14.667 15.432"><path d="M24.337,3.163h-.4V2.28A2.284,2.284,0,0,0,21.66,0H16.872a2.284,2.284,0,0,0-2.28,2.28v.883H14.23a2.284,2.284,0,0,0-2.28,2.28V9.121a2.284,2.284,0,0,0,2.28,2.28h.358v2.891a1.141,1.141,0,0,0,1.139,1.139H22.8a1.141,1.141,0,0,0,1.139-1.139V11.4h.4a2.284,2.284,0,0,0,2.28-2.28V5.443A2.284,2.284,0,0,0,24.337,3.163ZM15.452,2.28A1.42,1.42,0,0,1,16.869.864h4.785A1.42,1.42,0,0,1,23.07,2.28v.883H15.452ZM23.073,14.3a.277.277,0,0,1-.275.275H15.727a.277.277,0,0,1-.275-.275V9.531h7.621Zm2.68-5.175a1.42,1.42,0,0,1-1.417,1.417h-.4V9.531h.569a.432.432,0,1,0,0-.864H13.955a.432.432,0,1,0,0,.864h.636v1.011H14.23a1.42,1.42,0,0,1-1.417-1.417V5.447A1.42,1.42,0,0,1,14.23,4.03H24.337a1.42,1.42,0,0,1,1.417,1.417Z" transform="translate(-11.95)" fill="#fff"/><path d="M141.082,338.263h5.5a.432.432,0,1,0,0-.863h-5.5a.432.432,0,1,0,0,.863Z" transform="translate(-136.534 -326.609)" fill="#fff"/><path d="M147.583,392.6h-5.5a.432.432,0,0,0,0,.864h5.5a.432.432,0,0,0,0-.864Z" transform="translate(-137.502 -380.044)" fill="#fff"/><path d="M359.358,151.9h-.876a.432.432,0,0,0,0,.864h.876a.432.432,0,0,0,0-.864Z" transform="translate(-346.981 -147.042)" fill="#fff"/></svg>