<svg xmlns="http://www.w3.org/2000/svg" width="18" height="15.428" viewBox="0 0 18 15.428"><path d="M0,6.987A4.607,4.607,0,0,1,1.276,3.531,4.832,4.832,0,0,1,4.8,2.286,4,4,0,0,1,6.072,2.5a5.14,5.14,0,0,1,1.205.583q.557.367.959.688A9.239,9.239,0,0,1,9,4.456a9.239,9.239,0,0,1,.763-.683q.4-.321.959-.688A5.14,5.14,0,0,1,11.928,2.5,4,4,0,0,1,13.2,2.286a4.832,4.832,0,0,1,3.526,1.245A4.607,4.607,0,0,1,18,6.987a6.569,6.569,0,0,1-2.3,4.52L9.442,17.534a.632.632,0,0,1-.884,0L2.29,11.487a3.29,3.29,0,0,1-.276-.261q-.175-.181-.557-.658a8.887,8.887,0,0,1-.683-.979A6.089,6.089,0,0,1,.236,8.373,4.4,4.4,0,0,1,0,6.987Zm1.286,0a5.279,5.279,0,0,0,1.878,3.566L9,16.177l5.826-5.615a5.3,5.3,0,0,0,1.888-3.576A4.381,4.381,0,0,0,16.5,5.55a2.8,2.8,0,0,0-.552-.989,2.664,2.664,0,0,0-.818-.6,3.6,3.6,0,0,0-.944-.312,5.819,5.819,0,0,0-.984-.08,2.88,2.88,0,0,0-1.125.256,5.14,5.14,0,0,0-1.11.643q-.507.386-.869.723a7.7,7.7,0,0,0-.6.618.658.658,0,0,1-.984,0,7.839,7.839,0,0,0-.6-.618q-.361-.336-.869-.723a5.145,5.145,0,0,0-1.11-.643A2.887,2.887,0,0,0,4.8,3.571a5.73,5.73,0,0,0-.984.08,3.642,3.642,0,0,0-.944.312,2.635,2.635,0,0,0-.818.6A2.831,2.831,0,0,0,1.5,5.55a4.338,4.338,0,0,0-.216,1.437Z" transform="translate(0 -2.286)" opacity="0.15"/></svg>