<svg xmlns="http://www.w3.org/2000/svg" width="43.833" height="60" viewBox="0 0 43.833 60"><path d="M41.7,29.024V44.642a15.426,15.426,0,1,1-30.849,0V29.024L4.355,22.449l6.494-6.575V6.834h8.929L26.271.259l6.494,6.575h8.929v9.041l6.494,6.575-6.494,6.575Zm-1.084-2.192H34.188a10.432,10.432,0,0,1-1.327,1.37h6.4l1.351-1.37Zm.813-.821,1.353-1.37H35.528a10.22,10.22,0,0,1-.747,1.37h6.644Zm2.165-2.193,1.353-1.37H36.253a10.778,10.778,0,0,1-.393,1.37ZM11.931,26.833l1.353,1.37h6.349a10.418,10.418,0,0,1-1.325-1.37H11.931Zm5.784-.821a10.662,10.662,0,0,1-.747-1.37h-7.2l1.353,1.37Zm-8.76-2.193h7.683a10.393,10.393,0,0,1-.393-1.37H7.6l1.353,1.37Zm4.312-7.106L18.1,18.8a8.3,8.3,0,0,1,.649-2.615l-5.468-5.536v6.045l-.017.017Zm.017-7.225,5.854,5.925A8.281,8.281,0,0,1,21.184,13L19.659,9.3H13.286v.189Zm11.487,10.1a3.136,3.136,0,0,1,1.1-.341V13.717a5.646,5.646,0,0,0-3.042,1.138Zm-2.594-4.164a5.821,5.821,0,0,0-1.214,1.843l2.944,2.981c.058-.063.119-.122.183-.181Zm7.886-3.247,1.393-3.381L26.68,3.954v7.282a8.049,8.049,0,0,1,3.386.938ZM26.68,13.719v5.527a3.261,3.261,0,0,1,.435.091l2-4.856a5.625,5.625,0,0,0-2.434-.762ZM29.8,14.952l-1.937,4.705a3.227,3.227,0,0,1,.352.244L31.3,16.774a5.792,5.792,0,0,0-1.5-1.822Zm-1.013,5.534a3.308,3.308,0,0,1,.22.335l2.964-1.281c0-.015,0-.03,0-.046a5.869,5.869,0,0,0-.324-1.908Zm.536,1.092a.5.5,0,0,1,.015.05h2.23a5.761,5.761,0,0,0,.318-1.157Zm-7.994.871a5.678,5.678,0,0,0,9.84,0h-9.84Zm1.248-.823-1.9-.821a5.755,5.755,0,0,0,.252.821Zm.779-.556c.023-.05.053-.1.077-.145l-2.748-2.782a5.821,5.821,0,0,0-.164,1.351c0,.122.011.24.019.358l2.814,1.216ZM20.538,9.3l1.323,3.215a8.061,8.061,0,0,1,4.005-1.281V3.954L20.589,9.3h-.053Zm11.589,0-1.359,3.3a8.256,8.256,0,0,1,2.321,2.369l5.6-5.668H32.125Zm1.385,6.4a8.313,8.313,0,0,1,.851,2.807l4.9-2.117V9.877Zm6.157,1.408-5.249,2.268c0,.04.006.08.006.12a8.175,8.175,0,1,1-16.349.189l-5.428-2.346L8.413,21.626h8.622a9.42,9.42,0,0,0,5.658,7.4H13.282V44.642h.032A13.055,13.055,0,0,0,25.054,57.7V51.927a7.392,7.392,0,0,1-6.042-8.109h-.047V38.065H21.4v5.753h.058a4.9,4.9,0,1,0,9.627,0h.056V38.065h2.436v5.753h-.047a7.392,7.392,0,0,1-6.042,8.109V57.7A13.056,13.056,0,0,0,39.228,44.642h.032V29.024H29.8a9.422,9.422,0,0,0,5.66-7.4h8.673l-4.463-4.52ZM33.58,33.135H27.491V46.286H25.055V33.135H18.967V30.669H33.58v2.466Z" transform="translate(-4.355 -0.259)" fill="#d1ab66"/></svg>