<svg xmlns="http://www.w3.org/2000/svg" viewBox="0 0 16 16">
  <defs>
    <style>
      .cls-1 {
        fill: #369;
      }
    </style>
  </defs>
  <path id="icon-calendar-blue" class="cls-1" d="M3.429,2.286V1.143a1.143,1.143,0,1,1,2.286,0V2.286a1.143,1.143,0,1,1-2.286,0Zm8,1.143a1.143,1.143,0,0,0,1.143-1.143V1.143a1.143,1.143,0,1,0-2.286,0V2.286A1.143,1.143,0,0,0,11.429,3.429ZM16,16H0V2.286H2.857a1.714,1.714,0,0,0,3.429,0H9.714a1.714,1.714,0,0,0,3.429,0H16ZM14.857,5.714H1.143v9.143H14.857ZM5.714,6.857H3.429V9.143H5.714Zm3.429,0H6.857V9.143H9.143Zm3.429,0H10.286V9.143h2.286ZM5.714,10.286H3.429v2.286H5.714Zm3.429,0H6.857v2.286H9.143Zm3.429,0H10.286v2.286h2.286Z"/>
</svg>
