<svg xmlns="http://www.w3.org/2000/svg" width="13.865" height="18" viewBox="0 0 13.865 18"><path d="M-4799.773-724.871h-12.349l2.3-2.3h7.75l2.3,2.3h0Zm-10.959-2.916a2.14,2.14,0,0,1-1.559-.677,2.137,2.137,0,0,1-.585-1.605l.175-2.952h13.508l.174,2.952a2.142,2.142,0,0,1-.541,1.558,2.141,2.141,0,0,1-1.484.72c-.043,0-.085,0-.126,0h-9.562Zm3.861-1.847a.308.308,0,0,0-.308.308.308.308,0,0,0,.308.308h1.847a.309.309,0,0,0,.309-.308.309.309,0,0,0-.309-.308Zm5.234-2.771a1.541,1.541,0,0,0-1.539,1.54,1.544,1.544,0,0,0,1.539,1.539,1.541,1.541,0,0,0,1.539-1.539A1.541,1.541,0,0,0-4801.638-732.405Zm-8.62,0a1.541,1.541,0,0,0-1.539,1.54,1.541,1.541,0,0,0,1.539,1.539,1.544,1.544,0,0,0,1.539-1.539A1.541,1.541,0,0,0-4810.258-732.405Zm2.463,1.539a.308.308,0,0,0-.308.308.309.309,0,0,0,.308.308h3.693a.308.308,0,0,0,.308-.308.308.308,0,0,0-.308-.308Zm6.156.924a.924.924,0,0,1-.923-.923.925.925,0,0,1,.923-.924.925.925,0,0,1,.923.924A.925.925,0,0,1-4801.638-729.942Zm-8.62,0a.925.925,0,0,1-.924-.923.925.925,0,0,1,.924-.924.925.925,0,0,1,.924.924A.925.925,0,0,1-4810.258-729.942Zm11.028-3.695h-13.436l.271-4.617h12.892l.272,4.617Zm-12.567-4.31a.309.309,0,0,0-.309.308v3.386a.309.309,0,0,0,.309.308h11.7a.309.309,0,0,0,.308-.308v-3.386a.309.309,0,0,0-.308-.308Zm11.39,3.386h-11.082v-2.771h11.082v2.77Zm.852-4.31h-12.786a4.618,4.618,0,0,1,1.536-2.858,4.617,4.617,0,0,1,3.037-1.143h3.642a4.617,4.617,0,0,1,3.036,1.143,4.619,4.619,0,0,1,1.536,2.858Zm-9.778-1.847a.309.309,0,0,0-.309.308.309.309,0,0,0,.309.308h6.772a.308.308,0,0,0,.308-.308.308.308,0,0,0-.308-.308Z" transform="translate(4812.881 742.871)" fill="#d1ab66"/></svg>