<?xml version="1.0"?>
<svg xmlns="http://www.w3.org/2000/svg" xmlns:xlink="http://www.w3.org/1999/xlink" version="1.1" id="Capa_1" x="0px" y="0px" viewBox="0 0 52 52" style="enable-background:new 0 0 52 52;" xml:space="preserve" width="512px" height="512px" class=""><g><path d="M26,0C11.664,0,0,11.663,0,26s11.664,26,26,26s26-11.663,26-26S40.336,0,26,0z M28,41c0,1.104-0.896,2-2,2s-2-0.896-2-2v-2  c0-1.104,0.896-2,2-2s2,0.896,2,2V41z M28,33c0,1.104-0.896,2-2,2s-2-0.896-2-2V11c0-1.104,0.896-2,2-2s2,0.896,2,2V33z" data-original="#000000" class="active-path" data-old_color="#310012" fill="#336699"/></g> </svg>
