<svg xmlns="http://www.w3.org/2000/svg" viewBox="0 0 24 24">
  <defs>
    <style>
      .cls-1 {
        fill: #333;
      }
    </style>
  </defs>
  <path id="icon-calendar" class="cls-1" d="M5.143,3.429V1.714a1.714,1.714,0,1,1,3.429,0V3.429a1.714,1.714,0,1,1-3.429,0Zm12,1.714a1.714,1.714,0,0,0,1.714-1.714V1.714a1.714,1.714,0,0,0-3.429,0V3.429A1.714,1.714,0,0,0,17.143,5.143ZM24,24H0V3.429H4.286a2.571,2.571,0,0,0,5.143,0h5.143a2.571,2.571,0,0,0,5.143,0H24ZM22.286,8.571H1.714V22.286H22.286ZM8.571,10.286H5.143v3.429H8.571Zm5.143,0H10.286v3.429h3.429Zm5.143,0H15.429v3.429h3.429ZM8.571,15.429H5.143v3.429H8.571Zm5.143,0H10.286v3.429h3.429Zm5.143,0H15.429v3.429h3.429Z"/>
</svg>
