<svg xmlns="http://www.w3.org/2000/svg" viewBox="0 0 12.964 9.725">
  <defs>
    <style>
      .cls-1 {
        fill: #333;
      }
    </style>
  </defs>
  <path id="icon-change" class="cls-1" d="M0,12.318a.225.225,0,0,1,.065-.166L2.38,9.837a.225.225,0,0,1,.167-.065A.235.235,0,0,1,2.778,10v1.389H9.491a.235.235,0,0,1,.232.232v1.389a.235.235,0,0,1-.232.232H2.778v1.389a.235.235,0,0,1-.232.232.272.272,0,0,1-.174-.073L.065,12.478A.217.217,0,0,1,0,12.319ZM3.241,8.383V6.994a.235.235,0,0,1,.232-.232h6.713V5.373a.223.223,0,0,1,.232-.232.273.273,0,0,1,.174.073L12.9,7.521a.245.245,0,0,1,0,.333l-2.315,2.315a.225.225,0,0,1-.166.065A.235.235,0,0,1,10.186,10V8.613H3.473a.235.235,0,0,1-.232-.232Z" transform="translate(0 -5.141)"/>
</svg>
