<svg xmlns="http://www.w3.org/2000/svg" width="48.354" height="63.207" viewBox="0 0 48.354 63.207"><g transform="translate(-205.769 -39.942)"><path d="M252.347,255.118h12l-2.14,2.16H252.115a10.133,10.133,0,0,0,.232-2.16Zm-31.842,0h12a10.132,10.132,0,0,0,.232,2.16H222.645Z" transform="translate(-12.48 -191.006)" fill="#1080c2" fill-rule="evenodd"/><path d="M269.515,274.687H279.6l-2.138,2.16h-8.68a10,10,0,0,0,.736-2.16Zm-29.441,0h10.082a10,10,0,0,0,.736,2.16h-8.681Z" transform="translate(-29.89 -208.434)" fill="#fff" fill-rule="evenodd"/><path d="M259.643,294.256h8.67a10.042,10.042,0,0,0,1.386,2.16h-7.921l-2.136-2.16Zm26.534,0h8.67l-2.135,2.16h-7.921A10.037,10.037,0,0,0,286.177,294.256Z" transform="translate(-47.299 -225.863)" fill="#5cb85c" fill-rule="evenodd"/><path d="M5583.224-1190.225a16.546,16.546,0,0,1-4.874-11.721v-15.061l-6.874-6.874.767-.768,6.106-6.106v-9.722h9.722l6.875-6.874,6.874,6.874h9.722v9.722l6.875,6.874-6.875,6.874v15.061a16.546,16.546,0,0,1-4.874,11.721,16.545,16.545,0,0,1-11.721,4.874A16.546,16.546,0,0,1,5583.224-1190.225Zm-2.7-11.721a14.383,14.383,0,0,0,4.238,10.186,14.381,14.381,0,0,0,10.187,4.238,14.379,14.379,0,0,0,10.186-4.238,14.378,14.378,0,0,0,4.238-10.186V-1217.3h-7.4l.434-.51a8.9,8.9,0,0,0,1.621-2.786,9.583,9.583,0,0,0,.537-2.973h-1.4a8.194,8.194,0,0,1-2.4,5.5,8.194,8.194,0,0,1-5.812,2.408,8.2,8.2,0,0,1-5.813-2.408,8.194,8.194,0,0,1-2.4-5.5h-1.4a9.584,9.584,0,0,0,.538,2.973,8.883,8.883,0,0,0,1.62,2.786l.434.51h-7.4Zm10.147-17.657a6.031,6.031,0,0,0,4.278,1.772,6.03,6.03,0,0,0,4.277-1.772,6.027,6.027,0,0,0,1.764-3.967H5588.9A6.03,6.03,0,0,0,5590.668-1219.6Zm13.936-.788a9.392,9.392,0,0,1-1.326,2.47h6.107l5.649-5.649h-9.857A10.189,10.189,0,0,1,5604.6-1220.392Zm-17.991,2.47a9.408,9.408,0,0,1-1.326-2.47,10.189,10.189,0,0,1-.574-3.179h-9.856l5.649,5.649Zm17.949-6.269h10.473l-5.428-5.428-6.952,2.879a8.185,8.185,0,0,1,.505,2.548Zm-3.575,0a6.006,6.006,0,0,0-.34-1.717l-2.73,1.131a3.133,3.133,0,0,1,.116.586Zm-9.128,0a3.094,3.094,0,0,1,.116-.586l-2.73-1.131a6.023,6.023,0,0,0-.34,1.717Zm-6.529,0h1.4a8.2,8.2,0,0,1,.5-2.548l-6.952-2.879-.081.081-5.347,5.347Zm6.882-1.157a3.126,3.126,0,0,1,.333-.5l-2.09-2.089a6.071,6.071,0,0,0-.973,1.454Zm5.468,0,2.73-1.131a6.025,6.025,0,0,0-.973-1.454l-2.089,2.089A3.09,3.09,0,0,1,5597.68-1225.348Zm-.771-.935,2.089-2.089a6.046,6.046,0,0,0-1.454-.973l-1.131,2.73A3.12,3.12,0,0,1,5596.909-1226.283Zm-3.926,0a3.094,3.094,0,0,1,.5-.332l-1.131-2.73a6.055,6.055,0,0,0-1.454.973Zm1.067-.569a3.105,3.105,0,0,1,.586-.116v-2.954a6.03,6.03,0,0,0-1.717.34Zm1.792,0,1.131-2.73a6.024,6.024,0,0,0-1.717-.34v2.954A3.09,3.09,0,0,1,5595.842-1226.852Zm-8.369-.459a8.234,8.234,0,0,1,1.445-2.159l-8.4-8.4v7.676Zm14.945,0,6.952-2.88v-7.676l-8.4,8.4A8.231,8.231,0,0,1,5602.418-1227.311Zm-1.883-2.6,8.4-8.4h-7.676l-.958,2.314a2.392,2.392,0,0,0-.5-.42l.882-2.131-5.428-5.428v11.874a8.192,8.192,0,0,1,2.549.505l.474-1.143a1.436,1.436,0,0,0,.542.308l-.444,1.072A8.235,8.235,0,0,1,5600.535-1229.909Zm-11.178,0a8.23,8.23,0,0,1,2.159-1.445l-2.879-6.952h-7.677Zm2.73-1.682a8.2,8.2,0,0,1,2.549-.505v-11.874l-5.428,5.428Zm1.778,41.49v-6.068a7.286,7.286,0,0,1-4.068-2.06,7.265,7.265,0,0,1-2.141-5.149v-6.2h2.171v6.2a5.1,5.1,0,0,0,1.5,3.614,5.1,5.1,0,0,0,3.614,1.5,5.1,5.1,0,0,0,3.614-1.5,5.1,5.1,0,0,0,1.5-3.614v-6.2h2.172v6.2a7.267,7.267,0,0,1-2.141,5.149,7.286,7.286,0,0,1-4.068,2.06v6.068Zm0-10.61v-11.535h-6.208v-2.172h14.58v2.172h-6.208v11.535Zm4.584-32.29a1.11,1.11,0,0,1,0-1.582,1.138,1.138,0,0,1,1.075-.294.884.884,0,0,0-.138-.513.667.667,0,0,0-.289-.242v-.763a2.1,2.1,0,0,1,.887.523,2.059,2.059,0,0,1,.615,1.469,2.056,2.056,0,0,1-.415,1.24,1.09,1.09,0,0,1-.136.163,1.132,1.132,0,0,1-.8.328A1.133,1.133,0,0,1,5598.449-1233Z" transform="translate(-5365 1288)" fill="#d1ab66" stroke="rgba(0,0,0,0)" stroke-width="1"/></g></svg>