<svg xmlns="http://www.w3.org/2000/svg" width="14" height="12" viewBox="0 0 14 12"><path d="M0,5.942A3.583,3.583,0,0,1,.992,3.255a3.759,3.759,0,0,1,2.742-.969,3.114,3.114,0,0,1,.988.168,4,4,0,0,1,.938.453q.434.285.746.535A7.186,7.186,0,0,1,7,3.973a7.186,7.186,0,0,1,.594-.531q.312-.25.746-.535a4,4,0,0,1,.938-.453,3.114,3.114,0,0,1,.988-.168,3.759,3.759,0,0,1,2.742.969A3.583,3.583,0,0,1,14,5.942a5.109,5.109,0,0,1-1.789,3.516L7.344,14.146a.491.491,0,0,1-.688,0l-4.875-4.7a2.559,2.559,0,0,1-.215-.2q-.137-.14-.434-.512A6.912,6.912,0,0,1,.6,7.966,4.736,4.736,0,0,1,.184,7.02,3.422,3.422,0,0,1,0,5.942Zm1,0A4.106,4.106,0,0,0,2.461,8.716L7,13.091l4.531-4.367A4.124,4.124,0,0,0,13,5.942a3.407,3.407,0,0,0-.168-1.117,2.178,2.178,0,0,0-.43-.77,2.072,2.072,0,0,0-.637-.465,2.8,2.8,0,0,0-.735-.242,4.526,4.526,0,0,0-.766-.063,2.24,2.24,0,0,0-.875.2,4,4,0,0,0-.863.5q-.394.3-.676.563a5.991,5.991,0,0,0-.469.48.512.512,0,0,1-.766,0,6.1,6.1,0,0,0-.469-.48q-.281-.262-.676-.563a4,4,0,0,0-.863-.5,2.246,2.246,0,0,0-.875-.2,4.457,4.457,0,0,0-.766.063,2.832,2.832,0,0,0-.735.242,2.049,2.049,0,0,0-.637.465,2.2,2.2,0,0,0-.43.77A3.374,3.374,0,0,0,1,5.942Z" transform="translate(0 -2.286)" fill="#fff"/></svg>